<svg xmlns="http://www.w3.org/2000/svg" width="3253" height="691" fill="none" viewBox="0 0 3253 691"><rect width="688" height="688" x="1.5" y="1.5" fill="url(#paint0_radial_30_21)" rx="158.5"/><rect width="688" height="688" x="1.5" y="1.5" stroke="#000" stroke-width="3" rx="158.5"/><rect width="688" height="688" x="1.5" y="1.5" stroke="#fff" stroke-opacity=".2" stroke-width="3" rx="158.5"/><rect width="440.358" height="405.322" x="125" y="142" fill="#fff" rx="60"/><g filter="url(#filter0_d_30_21)"><path fill="#FDBA74" d="M191.967 142H505.358C538.495 142 565.358 168.863 565.358 202V344.661H191.967V142Z"/><path fill="#33887E" d="M191.967 344.661H565.358V487.322C565.358 520.459 538.495 547.322 505.358 547.322H191.967V344.661Z"/></g><rect width="28.41" height="405.322" x="256.904" y="142" fill="#202139"/><path fill="#fff" d="M995.8 617.2V195.4H1081L1084 251.2H1088.8C1096.4 232.8 1109 218 1126.6 206.8C1144.6 195.2 1166 189.4 1190.8 189.4C1210 189.4 1227.4 193 1243 200.2C1259 207 1272.6 217.4 1283.8 231.4C1295.4 245.4 1304.2 262.8 1310.2 283.6C1316.6 304.4 1319.8 328.6 1319.8 356.2C1319.8 393 1314.4 423.8 1303.6 448.6C1292.8 473.4 1277.6 492 1258 504.4C1238.8 516.8 1216.4 523 1190.8 523C1174.4 523 1159.4 520.4 1145.8 515.2C1132.2 510 1120.6 502.8 1111 493.6C1101.4 484.4 1094 473.6 1088.8 461.2H1084V617.2H995.8ZM1157.8 451.6C1172.2 451.6 1184.8 448.2 1195.6 441.4C1206.4 434.2 1214.6 423.6 1220.2 409.6C1226.2 395.6 1229.2 377.8 1229.2 356.2C1229.2 334.2 1226.2 316.2 1220.2 302.2C1214.6 288.2 1206.4 277.8 1195.6 271C1184.8 264.2 1172.2 260.8 1157.8 260.8C1141.4 260.8 1127.8 264.6 1117 272.2C1106.2 279.8 1098.2 289.6 1093 301.6C1087.8 313.6 1085.2 326.6 1085.2 340.6V371.8C1085.2 382.2 1086.6 392.2 1089.4 401.8C1092.2 411 1096.6 419.4 1102.6 427C1108.6 434.2 1116.2 440.2 1125.4 445C1134.6 449.4 1145.4 451.6 1157.8 451.6ZM1501.35 522.4C1467.75 522.4 1438.95 515.6 1414.95 502C1391.35 488.4 1373.15 469.4 1360.35 445C1347.55 420.2 1341.15 391.4 1341.15 358.6C1341.15 323.8 1347.55 293.8 1360.35 268.6C1373.15 243.4 1391.35 224 1414.95 210.4C1438.55 196.4 1466.35 189.4 1498.35 189.4C1535.55 189.4 1566.15 197.6 1590.15 214C1614.15 230.4 1631.35 252.6 1641.75 280.6C1652.15 308.6 1655.55 340.4 1651.95 376H1428.15C1427.75 392.8 1430.55 407.2 1436.55 419.2C1442.95 431.2 1451.75 440.4 1462.95 446.8C1474.15 452.8 1486.95 455.8 1501.35 455.8C1518.15 455.8 1532.35 452.2 1543.95 445C1555.95 437.4 1563.55 427.4 1566.75 415H1650.15C1647.35 436.6 1639.15 455.4 1625.55 471.4C1612.35 487.4 1595.15 500 1573.95 509.2C1552.75 518 1528.55 522.4 1501.35 522.4ZM1428.15 329.2L1420.35 319.6H1573.35L1565.55 329.2C1566.35 312.4 1563.75 298.8 1557.75 288.4C1552.15 277.6 1544.15 269.6 1533.75 264.4C1523.35 258.8 1511.55 256 1498.35 256C1483.95 256 1471.55 259 1461.15 265C1450.75 271 1442.55 279.6 1436.55 290.8C1430.95 301.6 1428.15 314.4 1428.15 329.2ZM1803.63 522.4C1784.43 522.4 1766.83 519 1750.83 512.2C1735.23 505.4 1721.63 495 1710.03 481C1698.83 467 1690.23 449.6 1684.23 428.8C1678.23 408 1675.23 383.8 1675.23 356.2C1675.23 319 1680.43 288.2 1690.83 263.8C1701.63 239 1716.63 220.4 1735.82 208C1755.43 195.6 1778.03 189.4 1803.63 189.4C1820.43 189.4 1835.43 192 1848.63 197.2C1862.23 202.4 1873.83 209.6 1883.43 218.8C1893.43 228 1900.83 238.8 1905.63 251.2H1910.43V79.6H1998.63V517H1913.43L1910.43 460.6H1905.63C1898.43 479.4 1885.83 494.4 1867.83 505.6C1849.83 516.8 1828.43 522.4 1803.63 522.4ZM1837.23 451C1853.63 451 1867.03 447.2 1877.43 439.6C1888.23 432 1896.23 422.2 1901.43 410.2C1906.63 397.8 1909.23 384.8 1909.23 371.2V340.6C1909.23 330.2 1907.83 320.2 1905.03 310.6C1902.23 301 1897.83 292.6 1891.83 285.4C1885.83 277.8 1878.23 271.8 1869.03 267.4C1859.83 263 1849.23 260.8 1837.23 260.8C1822.83 260.8 1810.23 264.2 1799.43 271C1788.63 277.8 1780.23 288.2 1774.23 302.2C1768.23 316.2 1765.23 334.2 1765.23 356.2C1765.23 377.4 1768.23 395.2 1774.23 409.6C1780.23 423.6 1788.63 434 1799.43 440.8C1810.23 447.6 1822.83 451 1837.23 451ZM2162.31 522.4C2143.11 522.4 2125.51 519 2109.51 512.2C2093.91 505.4 2080.31 495 2068.71 481C2057.51 467 2048.91 449.6 2042.91 428.8C2036.91 408 2033.91 383.8 2033.91 356.2C2033.91 319 2039.11 288.2 2049.51 263.8C2060.31 239 2075.31 220.4 2094.51 208C2114.11 195.6 2136.71 189.4 2162.31 189.4C2179.11 189.4 2194.11 192 2207.31 197.2C2220.91 202.4 2232.51 209.6 2242.11 218.8C2252.11 228 2259.51 238.8 2264.31 251.2H2269.11L2272.71 195.4H2357.31V517H2269.11V460.6H2264.31C2257.11 479.4 2244.51 494.4 2226.51 505.6C2208.51 516.8 2187.11 522.4 2162.31 522.4ZM2195.91 451C2212.31 451 2225.71 447.2 2236.11 439.6C2246.91 432 2254.91 422.2 2260.11 410.2C2265.31 397.8 2267.91 384.8 2267.91 371.2V340.6C2267.91 326.6 2265.31 313.6 2260.11 301.6C2254.91 289.6 2246.91 279.8 2236.11 272.2C2225.71 264.6 2212.31 260.8 2195.91 260.8C2181.51 260.8 2168.91 264.2 2158.11 271C2147.31 277.8 2138.91 288.2 2132.91 302.2C2126.91 316.2 2123.91 334.2 2123.91 356.2C2123.91 377.4 2126.91 395.2 2132.91 409.6C2138.91 423.6 2147.31 434 2158.11 440.8C2168.91 447.6 2181.51 451 2195.91 451ZM2411.8 517V79.6H2501.2V328.6L2527.6 298L2623 195.4H2731.6L2608 322.6L2734 517H2630.2L2564.8 415L2545.6 381.4L2501.2 425.2V517H2411.8ZM2759.94 517V195.4H2848.14V517H2759.94ZM2759.94 154V79.6H2848.14V154H2759.94Z"/><defs><filter id="filter0_d_30_21" width="573.391" height="605.322" x="91.967" y="42" color-interpolation-filters="sRGB" filterUnits="userSpaceOnUse"><feFlood flood-opacity="0" result="BackgroundImageFix"/><feColorMatrix in="SourceAlpha" result="hardAlpha" type="matrix" values="0 0 0 0 0 0 0 0 0 0 0 0 0 0 0 0 0 0 127 0"/><feOffset/><feGaussianBlur stdDeviation="50"/><feComposite in2="hardAlpha" operator="out"/><feColorMatrix type="matrix" values="0 0 0 0 0 0 0 0 0 0 0 0 0 0 0 0 0 0 0.1 0"/><feBlend in2="BackgroundImageFix" mode="normal" result="effect1_dropShadow_30_21"/><feBlend in="SourceGraphic" in2="effect1_dropShadow_30_21" mode="normal" result="shape"/></filter><radialGradient id="paint0_radial_30_21" cx="0" cy="0" r="1" gradientTransform="translate(345.5) rotate(90) scale(691)" gradientUnits="userSpaceOnUse"><stop offset=".001" stop-color="#20213E"/><stop offset="1" stop-color="#1C1B1B"/></radialGradient></defs></svg>